<svg id="Layer_1" height="512" viewBox="0 0 512 512" width="512" xmlns="http://www.w3.org/2000/svg" data-name="Layer 1"><path d="m274.4 261-12-14.77 18.91-23.43-18.91-15.63v-17.09l18.07-14.42-.68-28.41v-.4h26.77a20.367 20.367 0 0 0 19.89-16.01h.01a110.875 110.875 0 0 1 41.83 86.86c0 .48 0 .94-.01 1.41a67.358 67.358 0 0 1 78.7 65.36h.2a77.025 77.025 0 0 1 -77.03 77.02h-228.3a77.025 77.025 0 0 1 -77.03-77.02h.01c-.01-.7-.01-.79-.01-.79v-.03a96.911 96.911 0 0 1 85.4-96.23 111.315 111.315 0 0 1 35.75-54.99 20.359 20.359 0 0 0 19.47 14.42h25.25v114.15z" fill="#00acea"/><path d="m366.83 435.41a22.105 22.105 0 1 1 -15.64 6.47 22.016 22.016 0 0 1 15.64-6.47z" fill="#fedb41"/><path d="m185.97 132.43a20.093 20.093 0 0 1 -.89-5.94v-58.37a40.717 40.717 0 0 1 40.72-40.71h60.4a40.717 40.717 0 0 1 40.72 40.71v58.37a20.132 20.132 0 0 1 -.47 4.35 20.367 20.367 0 0 1 -19.89 16.01h-101.12a20.359 20.359 0 0 1 -19.47-14.42zm107.69-42.93v-13.23a13.563 13.563 0 0 0 -13.57-13.57h-48.18a13.563 13.563 0 0 0 -13.57 13.57v13.23z" fill="#00efd1"/><g fill="#fedb41"><path d="m293.66 76.27v13.23h-75.32v-13.23a13.563 13.563 0 0 1 13.57-13.57h48.18a13.563 13.563 0 0 1 13.57 13.57z"/><path d="m281.31 222.8-18.91 23.43 12 14.77h-43.71v-.2-113.55-.4h49.1v.4l.68 28.41-18.07 14.42v17.09z"/><path d="m256 440.38a22.105 22.105 0 1 1 -15.63 6.47 22.041 22.041 0 0 1 15.63-6.47z"/><path d="m145.17 435.41a22.105 22.105 0 1 1 -15.63 6.47 22 22 0 0 1 15.63-6.47z"/></g><path d="m218.34 96h75.32a6.744 6.744 0 0 0 6.34-6.5v-13.23c0-10.791-9.119-19.27-19.91-19.27h-48.18c-10.791 0-19.91 8.479-19.91 19.27v13.23a6.744 6.744 0 0 0 6.34 6.5zm5.66-19.73c0-4.174 3.736-7.27 7.91-7.27h48.18c4.174 0 7.91 3.1 7.91 7.27v7.73h-64z" fill="#083863"/><path d="m141.85 367h54.15v29h-50.83a6.455 6.455 0 0 0 -6.17 6.35v27.7a28.592 28.592 0 0 0 -13.79 7.585 28.138 28.138 0 1 0 39.84 0h-.085a29.065 29.065 0 0 0 -13.965-7.587v-22.048h50.54c3.314 0 6.46-2.336 6.46-5.65v-35.35h42v68.025a28.109 28.109 0 1 0 12 0v-68.025h45v35.35a5.677 5.677 0 0 0 5.96 5.65h48.04v22.049a29.084 29.084 0 0 0 -13.97 7.591 28.153 28.153 0 0 0 -.04 39.753h-.019a28.135 28.135 0 0 0 39.819-39.758 28.574 28.574 0 0 0 -13.79-7.58v-27.7a6.455 6.455 0 0 0 -6.17-6.35h-47.83v-29.005h51.15a82.608 82.608 0 0 0 83.03-82.652 5.553 5.553 0 0 0 -.218-1.546 72.218 72.218 0 0 0 -72-70.672c-2.195 0-4.472.047-6.79.2a116.419 116.419 0 0 0 -41.281-84c.042-.611.111-1.216.111-1.831v-58.379c-.002-25.756-21.041-47.12-46.802-47.12h-60.4c-25.761 0-46.8 21.364-46.8 47.12v58.37a26.456 26.456 0 0 0 .311 3.736 116.628 116.628 0 0 0 -33.74 51.774 102.789 102.789 0 0 0 -86.761 101.68s0 .068.011.523v.022a82.913 82.913 0 0 0 83.029 82.775zm14.72 101.9a16.145 16.145 0 0 1 -22.787 0 16.387 16.387 0 0 1 0-22.99 16.2 16.2 0 0 1 11.4-4.917h.029a16.156 16.156 0 0 1 11.355 4.916 16.386 16.386 0 0 1 .003 22.996zm110.817 4.972a16.105 16.105 0 1 1 0-22.784 15.995 15.995 0 0 1 0 22.789zm110.833-4.972a16.1 16.1 0 1 1 -.005-22.785 16.148 16.148 0 0 1 .005 22.79zm-187.22-400.78c0-19.139 15.655-35.12 34.8-35.12h60.4c19.145 0 34.8 15.981 34.8 35.12v58.37a14.878 14.878 0 0 1 -.373 3.149 14.539 14.539 0 0 1 -14.067 11.361h-101.12a14.518 14.518 0 0 1 -13.73-10.241c0-.007-.044-.053-.046-.06a14.409 14.409 0 0 1 -.664-4.209zm83.4 104.78-15.943 12.526a6.127 6.127 0 0 0 -2.457 4.654v17.09a6.2 6.2 0 0 0 2.377 4.625l14.44 11.851-15.136 18.815a6 6 0 0 0 .037 7.552l4.082 4.987h-24.8v-102h36.923zm-123.483 20.479a6 6 0 0 0 5.075-4.321 104.419 104.419 0 0 1 28.191-46.887 26.254 26.254 0 0 0 21.257 10.829h19.56v102h-25a6 6 0 0 0 0 12h112a6 6 0 0 0 0-12h-34.744l-7.135-8.783 15.858-19.649a6.028 6.028 0 0 0 -1.046-8.393l-16.933-13.83v-11.377l16.012-12.618a5.947 5.947 0 0 0 2.356-4.758l-.442-22.592h20.634a26.591 26.591 0 0 0 22.163-12.213 104.455 104.455 0 0 1 33.567 76.951c0 .435 0 .833-.009 1.26a5.994 5.994 0 0 0 7.162 6 61.349 61.349 0 0 1 71.537 59.47 5.992 5.992 0 0 0 .185 1.484 70.612 70.612 0 0 1 -71.015 69.048h-228.3a70.9 70.9 0 0 1 -71.029-70.438c.008-.141.011-.16.009-.3l-.01-.671a90.713 90.713 0 0 1 80.097-90.212z" fill="#083863"/></svg>